HIERARCHY
ROOT Joint1
{
	OFFSET 0.000000 0.000000 0.000000
	CHANNELS 6 Xposition Yposition Zposition Xrotation Yrotation Zrotation
	JOINT Joint2
	{
		OFFSET -0.000000 0.000000 1.456275
		CHANNELS 6 Xposition Yposition Zposition Xrotation Yrotation Zrotation
		JOINT Joint3
		{
			OFFSET -0.000000 0.000002 1.471446
			CHANNELS 6 Xposition Yposition Zposition Xrotation Yrotation Zrotation
			JOINT Joint4
			{
				OFFSET 0.625745 0.000000 0.917755
				CHANNELS 6 Xposition Yposition Zposition Xrotation Yrotation Zrotation
				JOINT Joint5
				{
					OFFSET -0.629534 0.000001 0.940221
					CHANNELS 6 Xposition Yposition Zposition Xrotation Yrotation Zrotation
					JOINT Joint6
					{
						OFFSET -0.000001 0.113772 1.960660
						CHANNELS 6 Xposition Yposition Zposition Xrotation Yrotation Zrotation
						JOINT Joint7
						{
							OFFSET -0.669733 -0.113771 0.388340
							CHANNELS 6 Xposition Yposition Zposition Xrotation Yrotation Zrotation
							End Site
							{
								OFFSET 0.005509 0.005509 0.438980
							}
						}
					}
				}
			}
		}
	}
}
MOTION
Frames: 14
Frame Time: 0.041667
0.000000 0.000000 0.000000 -0.000000 1.019410 -1.142946 -0.000000 -0.000000 1.456275 0.000000 -39.573969 0.000000 -0.000000 0.000002 1.471445 -0.000002 -1.133463 -49.897592 0.625744 0.000000 0.917755 -0.000115 88.842094 -0.000163 -0.629534 0.000001 0.940221 -0.000001 1.709740 46.724187 -0.000001 0.113773 1.960660 -88.303896 63.479546 -0.000002 -0.669733 -0.113771 0.388340 0.302901 2.414584 37.355647 
0.000000 0.000000 0.000000 -0.000000 1.019410 -1.182062 -0.000000 0.000000 1.456275 0.000000 -39.387519 0.000000 -0.000000 0.000002 1.471445 -0.000002 -1.133464 -51.617252 0.625745 0.000001 0.917755 -0.000048 87.249554 0.000002 -0.629534 0.000001 0.940220 -0.000004 1.709738 48.335927 -0.000001 0.113771 1.960660 -88.303889 62.565919 -0.000014 -0.669733 -0.113771 0.388340 0.293216 2.355677 33.992014 
0.000000 0.000000 0.000000 -0.000000 1.019410 -1.212884 -0.000000 0.000000 1.456275 0.000000 -39.240612 -0.000000 -0.000001 0.000002 1.471446 -0.000002 -1.133466 -52.972294 0.625745 0.000000 0.917755 0.000003 85.994677 -0.000011 -0.629534 0.000001 0.940221 -0.000001 1.709738 49.605929 -0.000001 0.113772 1.960660 -88.303896 61.846017 -0.000005 -0.669733 -0.113771 0.388340 0.283165 2.309727 31.341658 
0.000000 0.000000 0.000000 -0.000000 1.019410 -1.237430 -0.000000 0.000000 1.456275 -0.000000 -39.123624 0.000000 -0.000000 0.000002 1.471446 -0.000002 -1.133465 -54.051399 0.625745 0.000000 0.917755 -0.000007 84.995345 -0.000028 -0.629534 0.000000 0.940221 -0.000000 1.709738 50.617313 -0.000001 0.113773 1.960661 -88.303889 61.272712 -0.000006 -0.669733 -0.113770 0.388340 0.273640 2.273489 29.231065 
0.000000 0.000000 0.000000 -0.000000 1.019410 -1.260294 -0.000000 0.000000 1.456275 -0.000000 -39.014645 0.000000 -0.000000 0.000002 1.471446 -0.000002 -1.133463 -55.056574 0.625745 0.000000 0.917755 0.000002 84.064479 0.000009 -0.629534 0.000001 0.940221 0.000001 1.709737 51.559394 -0.000001 0.113772 1.960661 -88.303889 60.738693 -0.000000 -0.669733 -0.113771 0.388341 0.263582 2.240077 27.265130 
0.000000 0.000000 0.000000 -0.000000 1.019410 -1.285101 -0.000000 0.000000 1.456275 -0.000000 -38.896401 -0.000000 -0.000000 0.000002 1.471445 -0.000002 -1.133460 -56.147116 0.625745 0.000001 0.917755 0.000002 83.054547 0.000008 -0.629533 0.000001 0.940221 0.000001 1.709736 52.581494 -0.000001 0.113772 1.960661 -88.303896 60.159316 -0.000007 -0.669733 -0.113771 0.388340 0.251372 2.204236 25.132258 
0.000000 0.000000 0.000000 -0.000000 1.019410 -1.311589 -0.000000 0.000000 1.456275 -0.000000 -38.770155 0.000000 -0.000000 0.000002 1.471446 -0.000002 -1.133466 -57.311598 0.625745 0.000001 0.917755 -0.000004 81.976149 -0.000011 -0.629533 0.000001 0.940221 -0.000002 1.709735 53.672897 -0.000001 0.113773 1.960660 -88.303889 59.540658 -0.000004 -0.669733 -0.113771 0.388339 0.236861 2.166499 22.854831 
0.000000 0.000000 0.000000 -0.000000 1.019410 -1.338527 -0.000000 0.000000 1.456275 -0.000000 -38.641758 0.000000 -0.000000 0.000002 1.471446 -0.000002 -1.133464 -58.495892 0.625745 0.000001 0.917755 -0.000031 80.879405 -0.000010 -0.629533 0.000001 0.940221 -0.000004 1.709738 54.782864 -0.000001 0.113773 1.960661 -88.303896 58.911454 -0.000004 -0.669734 -0.113771 0.388340 0.220587 2.128735 20.538700 
0.000000 0.000000 0.000000 -0.000000 1.019410 -1.364945 -0.000000 0.000000 1.456275 -0.000000 -38.515840 0.000000 -0.000000 0.000002 1.471446 -0.000003 -1.133463 -59.657311 0.625745 0.000000 0.917755 0.000001 79.803841 0.000015 -0.629533 0.000001 0.940221 0.000001 1.709740 55.871388 -0.000001 0.113772 1.960661 -88.303889 58.294428 -0.000002 -0.669733 -0.113771 0.388339 0.203156 2.092376 18.267353 
0.000000 0.000000 0.000000 -0.000000 1.019410 -1.390913 -0.000000 0.000000 1.456275 -0.000000 -38.392070 -0.000000 -0.000000 0.000002 1.471446 -0.000003 -1.133463 -60.798915 0.625745 0.000000 0.917755 0.000001 78.746631 -0.000004 -0.629533 0.000001 0.940221 -0.000003 1.709736 56.941347 -0.000001 0.113772 1.960660 -88.303889 57.687921 -0.000004 -0.669733 -0.113771 0.388340 0.184629 2.057335 16.034789 
0.000000 0.000000 0.000000 -0.000000 1.019410 -1.416759 -0.000000 0.000000 1.456275 0.000000 -38.268870 -0.000000 -0.000000 0.000002 1.471446 -0.000003 -1.133464 -61.935206 0.625745 0.000000 0.917755 -0.000003 77.694331 -0.000008 -0.629533 0.000001 0.940221 0.000001 1.709737 58.006331 -0.000001 0.113772 1.960661 -88.303889 57.084231 -0.000001 -0.669733 -0.113771 0.388341 0.164849 2.023200 13.812650 
0.000000 0.000000 0.000000 -0.000000 1.019410 -1.442746 -0.000000 -0.000000 1.456275 -0.000000 -38.145012 -0.000000 -0.000000 0.000002 1.471445 -0.000003 -1.133465 -63.077630 0.625745 0.000000 0.917755 -0.000006 76.636362 0.000000 -0.629533 0.000001 0.940221 -0.000002 1.709738 59.077052 -0.000001 0.113772 1.960661 -88.303896 56.477291 -0.000000 -0.669733 -0.113771 0.388340 0.143640 1.989677 11.578561 
0.000000 0.000000 0.000000 -0.000000 1.019410 -1.468853 -0.000000 -0.000000 1.456275 0.000000 -38.020576 0.000000 -0.000000 0.000002 1.471445 -0.000003 -1.133468 -64.225362 0.625745 0.000001 0.917755 -0.000009 75.573468 0.000007 -0.629533 0.000001 0.940221 -0.000002 1.709736 60.152745 -0.000001 0.113773 1.960661 -88.303896 55.867522 -0.000001 -0.669733 -0.113770 0.388339 0.121031 1.956860 9.334119 
0.000000 0.000000 0.000000 -0.000000 1.019410 -1.494992 -0.000000 -0.000000 1.456275 0.000000 -37.895993 0.000000 -0.000001 0.000002 1.471446 -0.000003 -1.133468 -65.374527 0.625745 0.000000 0.917754 -0.000005 74.509263 -0.000003 -0.629533 0.000001 0.940221 -0.000004 1.709737 61.229798 -0.000001 0.113773 1.960661 -88.303889 55.256999 -0.000005 -0.669733 -0.113771 0.388340 0.097129 1.924912 7.086913 
